<svg viewBox="0 0 1383 478" fill="none" xmlns="http://www.w3.org/2000/svg" data-v-74eab246=""><path d="M344.955 6.97032V470.625H261.539V269.731H84.2798V470.625H0.863712V6.97032H84.2798V198.132H261.539V6.97032H344.955ZM723.543 127.924V470.625H651.249V396.941C644.993 415.014 638.041 433.783 615.102 452.552C603.285 462.283 580.345 477.576 543.503 477.576C512.222 477.576 478.855 466.454 459.392 435.868C445.489 413.624 442.013 399.026 442.013 367.745V127.924H521.259V345.501C521.259 382.343 533.076 411.539 569.223 411.539C594.248 411.539 625.529 392.77 636.651 363.574C644.297 343.415 646.383 325.342 646.383 292.671V127.924H723.543ZM975.92 410.148V470.625C958.542 474.796 936.297 477.576 921.7 477.576C895.98 477.576 864.003 468.54 848.71 450.466C827.856 426.832 825.076 404.587 825.076 365.66V188.4H782.673V127.924H829.942L836.893 38.9465L900.15 33.3855V127.924H968.969V188.4H900.15V355.233C900.15 402.502 916.834 410.843 956.456 410.843C962.713 410.843 967.578 410.843 975.92 410.148ZM1111.66 241.926C1083.16 227.328 1030.33 200.218 1030.33 130.704C1030.33 60.4957 1085.94 0.0189798 1199.94 0.0189798C1302.82 0.0189798 1363.99 49.3735 1363.99 120.277C1363.99 183.534 1314.64 206.474 1281.96 221.072C1320.89 239.145 1382.06 268.341 1382.06 342.72C1382.06 412.234 1322.28 477.576 1193.68 477.576C1079.68 477.576 1013.64 426.832 1013.64 353.147C1013.64 279.463 1080.37 253.743 1111.66 241.926ZM1169.35 269.036C1110.96 291.28 1093.58 324.647 1093.58 348.976C1093.58 379.562 1124.17 417.1 1198.55 417.1C1266.67 417.1 1296.56 386.514 1296.56 355.233C1296.56 314.915 1257.63 297.537 1169.35 269.036ZM1224.27 196.742C1248.6 185.62 1288.22 167.546 1288.22 122.363C1288.22 72.313 1233.3 57.7151 1200.63 57.7151C1178.39 57.7151 1114.44 65.3616 1114.44 117.497C1114.44 156.424 1148.5 172.412 1224.27 196.742Z" fill="#080808" data-v-74eab246=""></path></svg>