<svg width="20" height="20" viewBox="0 0 20 20" fill="none" xmlns="http://www.w3.org/2000/svg" data-v-74eab246=""><g clip-path="url(#clip0_3262_25957)" data-v-74eab246=""><path d="M4.65806 2.34149C4.65806 2.97253 4.42973 3.51638 3.97305 3.97305C3.51638 4.42973 2.97253 4.65806 2.34149 4.65806C1.69384 4.65806 1.14168 4.42973 0.685009 3.97305C0.228334 3.51638 0 2.97253 0 2.34149C0 1.69384 0.228334 1.14168 0.685009 0.685009C1.14168 0.228334 1.69384 0 2.34149 0C2.97253 0 3.51638 0.228334 3.97305 0.685009C4.42973 1.14168 4.65806 1.69384 4.65806 2.34149ZM6.85009 6.42663V19.3297H10.8605V12.9529C10.8605 12.106 11.0017 11.3421 11.284 10.6612C11.5663 9.98037 12.2222 9.63995 13.2518 9.63995C14.2814 9.63995 14.8875 10.0219 15.0702 10.7858C15.2529 11.5497 15.3442 12.3052 15.3442 13.0525V19.3297H19.3546V12.2554C19.3546 10.5118 19.0599 9.05043 18.4703 7.87138C17.8808 6.69233 16.5731 6.10281 14.5471 6.10281C13.5673 6.10281 12.7578 6.32284 12.1184 6.76291C11.4791 7.20298 11.0266 7.6804 10.7609 8.1952H10.6861V6.42663H6.85009ZM0.323822 6.42663H4.33424V19.3297H0.323822V6.42663Z" fill="#080808" data-v-74eab246=""></path></g> <defs data-v-74eab246=""><clipPath id="clip0_3262_25957" data-v-74eab246=""><rect width="19.3546" height="19.3297" fill="black" data-v-74eab246=""></rect></clipPath></defs></svg>