<svg viewBox="0 0 74 74" fill="none" xmlns="http://www.w3.org/2000/svg" class="logo" data-v-27a0f305=""><path fill-rule="evenodd" clip-rule="evenodd" d="M35.7271 15.6238L31.6899 0.556853L33.7681 0L37.8053 15.067L36.7679 15.3449L39.0066 23.6998C38.6294 23.6434 38.2471 23.6027 37.8603 23.5783L35.7288 15.6234L35.7271 15.6238ZM35.4965 23.6344L31.1716 16.1435L32.1015 15.6066L24.3023 2.09795L22.439 3.1737L30.2383 16.6824L30.24 16.6814L34.3564 23.8111C34.731 23.7364 35.1113 23.6773 35.4965 23.6344ZM32.0825 24.4791L25.971 18.3676L25.2103 19.1282L31.0288 24.9467C31.372 24.7764 31.7235 24.6202 32.0825 24.4791ZM29.0175 26.1763L21.5241 21.8501L22.0606 20.9209L8.55194 13.1216L7.47618 14.9849L20.9849 22.7841L20.9863 22.7817L28.1203 26.9005C28.4087 26.6467 28.708 26.405 29.0175 26.1763ZM26.4849 28.6166L18.1302 26.378L17.8517 27.4171L25.8045 29.548C26.0182 29.2276 26.2452 28.9169 26.4849 28.6166ZM24.6723 31.6203H16.0236V30.5445L0.425117 30.5446L0.425117 32.6961H16.0235H16.0236H24.2567C24.3801 32.3302 24.5189 31.9713 24.6723 31.6203ZM23.702 34.9945L15.3461 37.2334L15.6245 38.2725L23.5807 36.1407C23.605 35.754 23.6457 35.3717 23.702 34.9945ZM23.6374 38.5061L16.1458 42.8314L15.6059 41.8964L2.09725 49.6956L3.17301 51.5589L16.6805 43.7603L16.6824 43.7637L23.8144 39.6461C23.7396 39.2715 23.6803 38.8913 23.6374 38.5061ZM24.4799 41.9121L18.3639 48.0281L17.603 47.2672L6.57319 58.297L8.09454 59.8183L19.1238 48.789L19.1241 48.7893L24.9473 42.9661C24.777 42.6228 24.6209 42.2712 24.4799 41.9121ZM26.1781 44.9804L21.8522 52.4731L22.7838 53.0109L26.9022 45.8777C26.6484 45.5893 26.4068 45.2899 26.1781 44.9804ZM28.6152 47.5109L26.3755 55.8699L27.4146 56.1484L29.5466 48.1917C29.2262 47.9779 28.9155 47.7507 28.6152 47.5109ZM31.6214 49.326L31.6214 57.9748H32.6971L32.6971 49.7417C32.3312 49.6182 31.9724 49.4794 31.6214 49.326ZM34.9943 50.2965L37.2335 58.6534L38.2726 58.375L36.1406 50.4181C35.7538 50.3937 35.3715 50.3529 34.9943 50.2965ZM38.5042 50.362L42.8286 57.8523L41.8992 58.3889L49.6984 71.8976L51.5617 70.8218L43.7624 57.3131L43.7603 57.3144L39.6443 50.1854C39.2697 50.2601 38.8894 50.3192 38.5042 50.362ZM41.9158 49.5186L48.0302 55.633L48.7909 54.8723L42.9697 49.0511C42.6264 49.2214 42.2749 49.3775 41.9158 49.5186ZM44.9796 47.8232L52.4763 52.1514L51.9396 53.081L65.4483 60.8802L66.524 59.017L53.0154 51.2177L53.0142 51.2198L45.8773 47.0993C45.5887 47.353 45.2893 47.5946 44.9796 47.8232ZM47.5135 45.3836L55.8694 47.6226L56.1478 46.5835L48.1942 44.4523C47.9805 44.7727 47.7533 45.0834 47.5135 45.3836ZM49.3278 42.3793H57.9772V41.3036H49.7437C49.6201 41.6695 49.4812 42.0283 49.3278 42.3793ZM50.2989 39.0053L58.6546 36.7663L58.9326 37.8038L73.9996 33.7666L73.4427 31.6884L58.3758 35.7256L58.3762 35.7272L50.4206 37.8589C50.3962 38.2457 50.3554 38.628 50.2989 39.0053ZM50.3646 35.495L57.8551 31.1704L58.3942 32.1042L71.9029 24.305L70.8271 22.4417L57.3201 30.24L57.3188 30.2378L50.188 34.3548C50.2626 34.7295 50.3218 35.1098 50.3646 35.495ZM49.5208 32.0823L55.6362 25.967L56.3972 26.728L67.427 15.6982L65.9056 14.1769L54.8759 25.2066L54.8755 25.2062L49.0533 31.0285C49.2236 31.3717 49.3797 31.7233 49.5208 32.0823ZM47.8221 29.0143L52.1475 21.5225L51.2159 20.9846L47.0979 28.1171C47.3517 28.4055 47.5934 28.7048 47.8221 29.0143ZM45.385 26.4844L47.6233 18.131L48.6627 18.4095L52.6999 3.34254L50.6217 2.78569L46.5854 17.8491L46.5851 17.849L44.4536 25.8038C44.774 26.0176 45.0848 26.2447 45.385 26.4844ZM42.3792 24.67V16.021H43.455V0.422489L41.3035 0.422489L41.3035 16.0204V24.2543C41.6694 24.3778 42.0282 24.5166 42.3792 24.67ZM59.0144 7.47412L51.2151 20.9828L53.0784 22.0586L60.8777 8.54988L59.0144 7.47412ZM73.5761 41.3036H57.9777V43.4551H73.5761V41.3036ZM25.2089 19.1195L14.1791 8.08968L15.7004 6.56833L26.7302 17.5981L25.2089 19.1195ZM17.8511 27.4159L2.78412 23.3787L3.34098 21.3005L18.4079 25.3377L17.8511 27.4159ZM15.6238 38.275L0.556853 42.3122L0 40.234L15.067 36.1968L15.6238 38.275ZM14.9849 66.5214L22.7841 53.0127L20.9209 51.937L13.1216 65.4456L14.9849 66.5214ZM27.4147 56.1489L23.3775 71.2158L21.2993 70.659L25.3365 55.592L27.4147 56.1489ZM32.6971 73.5771L32.6971 57.9787H30.5456L30.5456 73.5771H32.6971ZM38.2724 58.3777L42.3096 73.4447L40.2314 74.0015L36.1942 58.9346L38.2724 58.3777ZM48.7914 54.8729L59.8211 65.9027L58.2998 67.424L47.27 56.3942L48.7914 54.8729ZM56.1485 46.586L71.2155 50.6232L70.6586 52.7014L55.5916 48.6642L56.1485 46.586Z" fill="#F8F8F8" data-v-27a0f305="" style="fill: rgb(248, 248, 248);"></path></svg>